<?xml version="1.0" standalone="no"?>
<!DOCTYPE svg PUBLIC "-//W3C//DTD SVG 20010904//EN"
 "http://www.w3.org/TR/2001/REC-SVG-20010904/DTD/svg10.dtd">
<svg version="1.0" xmlns="http://www.w3.org/2000/svg"
 width="628.000000pt" height="628.000000pt" viewBox="0 0 628.000000 628.000000"
 preserveAspectRatio="xMidYMid meet">
<metadata>
Created by potrace 1.14, written by Peter Selinger 2001-2017
</metadata>
<g transform="translate(0.000000,628.000000) scale(0.100000,-0.100000)"
fill="#000000" stroke="none">
<path d="M2939 6275 c-2 -1 -44 -6 -93 -10 -50 -4 -97 -8 -105 -10 -9 -1 -36
-6 -61 -9 -222 -31 -501 -107 -731 -201 -578 -236 -1087 -657 -1439 -1190
-223 -339 -404 -797 -464 -1180 -21 -133 -26 -170 -33 -245 -10 -105 -10 -504
0 -585 4 -33 10 -82 12 -110 3 -27 10 -72 15 -100 6 -27 17 -86 26 -130 16
-85 41 -182 70 -280 10 -33 19 -62 19 -65 2 -6 3 -8 62 -165 295 -774 951
-1441 1731 -1760 238 -96 503 -170 732 -201 25 -3 53 -8 62 -9 140 -27 583
-27 798 0 68 8 116 16 130 20 8 2 33 6 55 10 121 17 466 117 571 165 22 11 64
28 92 39 224 88 588 316 790 494 151 133 270 254 362 367 25 30 47 57 50 60
39 39 150 198 236 337 59 94 212 394 218 425 1 7 10 29 18 49 51 117 133 401
162 559 24 130 25 141 32 205 3 33 8 71 11 85 9 43 11 512 2 575 -4 33 -11 87
-14 120 -3 33 -8 67 -10 75 -3 8 -7 34 -10 57 -2 23 -14 81 -25 130 -11 48
-23 99 -26 113 -3 14 -14 57 -25 95 -235 807 -769 1475 -1504 1884 -105 58
-354 175 -360 169 -7 -7 -125 -210 -125 -215 0 -3 -8 -17 -18 -31 -11 -15 -33
-52 -49 -82 -17 -30 -105 -183 -197 -339 -91 -156 -166 -286 -166 -288 0 -2
-8 -16 -19 -31 -16 -23 -148 -249 -226 -387 -13 -22 -76 -130 -140 -240 -65
-110 -126 -216 -137 -235 -11 -19 -37 -64 -58 -100 -42 -73 -59 -104 -170
-305 -79 -144 -247 -447 -468 -845 -69 -124 -138 -250 -155 -280 -16 -30 -33
-58 -36 -63 -4 -4 -26 28 -49 70 -23 43 -58 107 -78 143 -20 36 -52 94 -71
130 -19 35 -55 99 -79 142 -24 42 -44 80 -44 83 0 3 -10 22 -23 43 -13 20 -45
78 -72 127 -26 50 -54 99 -60 110 -7 11 -32 56 -55 100 -24 44 -60 111 -81
150 -21 38 -42 71 -47 73 -5 1 -38 -46 -72 -105 -35 -59 -91 -155 -125 -213
-34 -58 -94 -160 -134 -228 l-72 -122 199 -353 c110 -193 210 -370 223 -392
12 -22 48 -85 79 -140 31 -55 99 -174 150 -265 51 -91 120 -212 152 -270 33
-57 61 -106 64 -109 6 -6 374 -7 383 -1 5 3 21 28 36 55 72 129 540 973 553
1000 9 17 31 53 49 82 18 29 33 54 33 56 0 3 25 49 56 103 31 55 73 128 92
164 20 36 68 122 109 193 40 70 73 132 73 138 0 6 31 64 69 128 55 94 182 312
281 486 10 17 65 111 122 210 90 155 504 870 592 1022 l30 52 50 -36 c182
-131 375 -316 513 -493 58 -75 173 -238 173 -246 0 -3 8 -18 19 -32 26 -38
101 -182 148 -288 76 -168 153 -424 183 -604 7 -41 14 -83 16 -93 25 -135 24
-508 -1 -694 -59 -428 -223 -837 -476 -1179 -221 -301 -478 -534 -789 -716
-322 -189 -705 -313 -1067 -345 -156 -14 -484 -7 -596 12 -15 3 -55 10 -90 15
-439 75 -878 279 -1222 569 -282 237 -507 524 -665 846 -128 261 -193 475
-244 795 -27 165 -27 560 -1 705 3 17 10 57 16 90 107 643 486 1256 1019 1646
78 57 168 119 174 119 2 0 34 19 72 41 64 39 192 104 279 141 119 51 381 133
488 153 12 3 33 7 47 10 14 2 48 7 75 11 28 3 53 8 56 9 26 16 489 26 581 13
l37 -6 132 227 c73 124 141 238 151 252 l18 27 -63 11 c-34 5 -91 13 -127 17
-36 3 -69 9 -74 12 -10 5 -501 13 -507 7z"/>
<path d="M4600 3793 c0 -6 -29 -63 -65 -127 -36 -64 -65 -118 -65 -121 0 -3
-11 -22 -23 -43 -13 -20 -48 -82 -77 -137 -29 -55 -56 -104 -60 -110 -4 -5
-26 -46 -50 -90 -23 -44 -62 -115 -86 -157 -24 -43 -44 -80 -44 -84 0 -3 -8
-18 -18 -32 -11 -15 -41 -67 -67 -117 -54 -101 -86 -159 -90 -163 -2 -2 -274
485 -305 547 -5 10 -18 -3 -44 -43 -20 -31 -36 -58 -36 -61 0 -2 -70 -128
-155 -280 -85 -151 -155 -279 -155 -284 0 -5 25 -53 55 -106 30 -54 55 -99 55
-101 0 -3 10 -21 23 -42 13 -20 45 -77 72 -127 26 -49 67 -124 90 -165 58
-103 91 -164 133 -240 19 -36 43 -78 53 -95 l18 -30 178 1 c98 1 185 2 194 3
10 1 26 18 37 39 10 20 28 53 39 72 11 19 62 109 113 200 51 91 115 203 142
250 28 46 54 93 59 105 5 11 20 38 33 60 21 37 173 305 219 385 20 37 172 304
213 377 l24 42 -191 328 c-184 314 -219 371 -219 346z"/>
</g>
</svg>
